<?xml version="1.0" encoding="UTF-8" standalone="no"?>
<svg width="500" height="300"
     version="1.1"
     baseProfile="full"
     xmlns="http://www.w3.org/2000/svg"
>

    <defs>


        <mask id="slice-mask-57b0b9dc-95fc-49ac-9e20-b130b6639533-0">
            <path d="M 261.4624153612051 60.73291180907037 A 90 90 0 0 0 250 60 L 250 26.333333333333343 A 123.66666666666666 123.66666666666666 0 0 1 265.7502077741003 27.34040844875966 Z"
                  fill="white"/>
        </mask>
        <mask id="slice-mask-57b0b9dc-95fc-49ac-9e20-b130b6639533-1">
            <path d="M 307.85088487178854 81.05600011929197 A 90 90 0 0 0 261.4624153612051 60.73291180907037 L 265.7502077741003 27.34040844875966 A 123.66666666666666 123.66666666666666 0 0 1 329.49140106456866 55.265837200953044 Z"
                  fill="white"/>
        </mask>
        <mask id="slice-mask-57b0b9dc-95fc-49ac-9e20-b130b6639533-2">
            <path d="M 330.13834180359106 109.03847936207922 A 90 90 0 0 0 307.85088487178854 81.05600011929197 L 329.49140106456866 55.265837200953044 A 123.66666666666666 123.66666666666666 0 0 1 360.116017811601 93.71583645678291 Z"
                  fill="white"/>
        </mask>
        <mask id="slice-mask-57b0b9dc-95fc-49ac-9e20-b130b6639533-3">
            <path d="M 249.99999999999997 60 A 90 90 0 1 0 330.13834180359106 109.03847936207922 L 360.116017811601 93.71583645678291 A 123.66666666666666 123.66666666666666 0 1 1 249.99999999999997 26.333333333333343 Z"
                  fill="white"/>
        </mask>


    </defs>

    <g id="chart">


        <circle fill="#ffffff" cx="250" cy="150" r="124.66666666666666"/>
        <g id="slices">
            <path d="M 261.4624153612051 60.73291180907037 A 90 90 0 0 0 250 60 L 250 26.333333333333343 A 123.66666666666666 123.66666666666666 0 0 1 265.7502077741003 27.34040844875966 Z"
                  fill="firebrick" stroke="#ffffff" stroke-width="2"
                  mask="url(#slice-mask-57b0b9dc-95fc-49ac-9e20-b130b6639533-0)"/>
            <path d="M 307.85088487178854 81.05600011929197 A 90 90 0 0 0 261.4624153612051 60.73291180907037 L 265.7502077741003 27.34040844875966 A 123.66666666666666 123.66666666666666 0 0 1 329.49140106456866 55.265837200953044 Z"
                  fill="sandybrown" stroke="#ffffff" stroke-width="2"
                  mask="url(#slice-mask-57b0b9dc-95fc-49ac-9e20-b130b6639533-1)"/>
            <path d="M 330.13834180359106 109.03847936207922 A 90 90 0 0 0 307.85088487178854 81.05600011929197 L 329.49140106456866 55.265837200953044 A 123.66666666666666 123.66666666666666 0 0 1 360.116017811601 93.71583645678291 Z"
                  fill="mediumseagreen" stroke="#ffffff" stroke-width="2"
                  mask="url(#slice-mask-57b0b9dc-95fc-49ac-9e20-b130b6639533-2)"/>
            <path d="M 249.99999999999997 60 A 90 90 0 1 0 330.13834180359106 109.03847936207922 L 360.116017811601 93.71583645678291 A 123.66666666666666 123.66666666666666 0 1 1 249.99999999999997 26.333333333333343 Z"
                  fill="deepskyblue" stroke="#ffffff" stroke-width="2"
                  mask="url(#slice-mask-57b0b9dc-95fc-49ac-9e20-b130b6639533-3)"/>


            <line x1="257.82737554488773" y1="27.58332097630486" x2="258.59309706558327" y2="15.607776289204253"
                  stroke="firebrick" stroke-width="1"/>
            <text x="258.8483375724818" y="11.615928060170717" text-anchor="start" alignment-baseline="central"
                  font-family="Roboto Medium" font-size="12">ERROR
            </text>
            <line x1="299.22429714478767" y1="37.64307016604292" x2="304.0397175176474" y2="26.651631377938415"
                  stroke="sandybrown" stroke-width="1"/>
            <text x="305.6448576419339" y="22.987818448570252" text-anchor="start" alignment-baseline="central"
                  font-family="Roboto Medium" font-size="12">WARNING
            </text>
            <line x1="345.9511546535746" y1="73.57692081735438" x2="355.33768065229384" y2="66.10075002774775"
                  stroke="mediumseagreen" stroke-width="1"/>
            <text x="358.4665226518669" y="63.60869309787887" text-anchor="start" alignment-baseline="central"
                  font-family="Roboto Medium" font-size="12">SUGGESTION
            </text>
            <line x1="185.9736405115859" y1="254.63143123254827" x2="179.71019230076277" y2="264.8671147226888"
                  stroke="deepskyblue" stroke-width="1"/>
            <text x="177.62237623048838" y="268.2790092194024" text-anchor="end" alignment-baseline="central"
                  font-family="Roboto Medium" font-size="12">HINT
            </text>
        </g>

    </g>
</svg>